PathFileType	4	(X/Y/Z)	50_1_rein_50_p1_0-335.trc
DataRate	CameraRate	NumFrames	NumMarkers	Units	OrigDataRate	OrigDataStartFrame	OrigNumFrames
59.0	59.0	5	27	m	59.0	210	336
Frame#	Time	RHip			RKnee			RAnkle			RBigToe			RSmallToe			RHeel			LHip			LKnee			LAnkle			LBigToe			LSmallToe			LHeel			Neck			Head			Nose			RShoulder			RElbow			RWrist			RThumb			RIndex			RPinky			LShoulder			LElbow			LWrist			LThumb			LIndex			LPinky			
		X1	Y1	Z1	X2	Y2	Z2	X3	Y3	Z3	X4	Y4	Z4	X5	Y5	Z5	X6	Y6	Z6	X7	Y7	Z7	X8	Y8	Z8	X9	Y9	Z9	X10	Y10	Z10	X11	Y11	Z11	X12	Y12	Z12	X13	Y13	Z13	X14	Y14	Z14	X15	Y15	Z15	X16	Y16	Z16	X17	Y17	Z17	X18	Y18	Z18	X19	Y19	Z19	X20	Y20	Z20	X21	Y21	Z21	X22	Y22	Z22	X23	Y23	Z23	X24	Y24	Z24	X25	Y25	Z25	X26	Y26	Z26	X27	Y27	Z27	
210	3.559322033898305	0.31465675919699754	0.7380989133027771	0.5008224784545252	0.2713078698460811	0.8199956404781557	0.9189680394785346	0.29940259012451553	1.0433863143319055	1.3695249354925783	0.24758041630327185	0.8110482888722074	1.397475915284612	0.30809753626534075	0.8382661997118633	1.4091220809062064	0.27609614836695706	1.1343966243350954	1.4207051748574078	0.10376992012420923	0.7231886078218124	0.4977354971018836	0.10865947961313589	0.8742102126764635	0.9287589824426806	0.10248419790996677	1.0117500174176628	1.3559620779520003	0.10904782702375099	0.8289526179135557	1.3865484940437658	0.059890879122106305	0.8630547445677857	1.3881204700557679	0.10862860950571322	1.0842530036657025	1.4190527490306244	0.19126857469806546	0.6161414840977929	-0.05748780547505255	0.20644017761182928	0.48016439105980224	-0.28090897086045685	0.18759647974411622	0.4143182279516723	-0.13628833601237852	0.3392656352041253	0.5825724303912505	0.012854961393344959	0.4266711620646044	0.5826763811302139	0.2646264185565506	0.3774343749219242	0.4546261269421006	0.10441707757166244	0.3288176180457175	0.49143703444440556	-0.005849854376905361	0.32890681313452935	0.4285175772743855	0.006340447314946255	0.33853460121639023	0.39846842065482274	0.07456585334804217	0.05370675944565492	0.6442104721185751	-0.0002278765757240978	-0.027964521784748946	0.6774607875010691	0.2691376389993	-0.010479579384597888	0.5061742505848135	0.10267603017630397	0.0005005533769667304	0.5098177843490084	0.0071235033904546476	-0.00344375180663747	0.48264383151885326	0.009208114602944123	-0.008292858471755623	0.43788747940771827	0.041941332636550775
211	3.5762711864406778	0.31467004119385394	0.7378832781094125	0.5006392396523794	0.27132487280361334	0.8200616607335884	0.9191106102239653	0.2994262405278609	1.0431127833146117	1.369515961823914	0.24715040115371653	0.8090206663414093	1.3969720627132727	0.3128239775371687	0.8389355472117265	1.4098824623940396	0.2813011192556219	1.1516910753636966	1.4256748324701574	0.10383942145590574	0.723284906373307	0.49776204005225644	0.113272314036704	0.8763668747873776	0.9290595707458805	0.10247581609946604	1.0114963243707207	1.3560467760433936	0.11298903492390704	0.8123354701661458	1.3812846306729576	0.06007450001785507	0.8626406790437874	1.388006089853236	0.10941472568113654	1.0863334023610778	1.4229899664447534	0.19095455740319933	0.6163279228268272	-0.05724247669228614	0.2063955617704009	0.4802572703942143	-0.28086226806190606	0.18766552214963797	0.4158930719123207	-0.13323289969699345	0.33916041971787214	0.5824037577480599	0.012847438207482754	0.4267897934755695	0.582852440666559	0.2681506481427079	0.37776751007830883	0.45402052744514887	0.1007860894752569	0.32662374545835854	0.5046267285635003	-0.011080395847184324	0.3306755145395857	0.44253947917175923	0.00044206606819093604	0.33867133889329454	0.3974493606912051	0.07203097121619284	0.05351062062693226	0.6419597288665505	-0.00398885409880156	-0.028015619669580123	0.6776599579763573	0.26897701790365497	-0.010874201268148998	0.5069331688688529	0.1055961040127296	-0.00514701342361921	0.5609778053958249	0.0031167284276754094	-0.007242659932786393	0.4950209146938501	0.007407204811109339	-0.00817153467148897	0.4392850689889142	0.04523965600812866
212	3.593220338983051	0.3146737848857416	0.7380056279383449	0.5007049704792857	0.2721638727003879	0.8227839687573612	0.9235236394768239	0.29443316400177627	1.0263573657416192	1.3648617779026362	0.2525692839830722	0.827338655564205	1.402456752884356	0.31201073837452564	0.8642783090668262	1.4172309354767234	0.2756822155879367	1.1382801939145708	1.4268694206385693	0.10391767664851745	0.7232386721478047	0.4977899312634552	0.10790036135961036	0.8760332310492289	0.9327370484672104	0.10235004772085428	1.0111219447571949	1.3559839624793368	0.11301078537582457	0.8125133284033611	1.3812505378939812	0.06038369363772681	0.8650755028696245	1.3886084090898485	0.10981775038196931	1.0877700274736017	1.4233358107198995	0.19114018100069652	0.6166474336325947	-0.05743775783251715	0.20272162201153257	0.4684483714865189	-0.2780369397248027	0.18373400301817336	0.41430724117681933	-0.13282398358452702	0.3366941024168334	0.5984661890537833	0.014437315707757347	0.4317633319312459	0.5950472033607342	0.2674876859534158	0.3817472864600803	0.4645961823352831	0.0960807957104498	0.3271767027646933	0.49623425315247816	-0.010498182389615428	0.3350686454082177	0.453663404266593	-0.00458880727581167	0.3475235584198086	0.40951041555084766	0.06034457789963402	0.05348936058736826	0.6413920179520114	-0.007766587397878054	-0.028064012664054054	0.6777906083869508	0.2688063136289436	-0.014957224801085238	0.5192582593748495	0.10428338389042095	-0.005030178800403491	0.5619024458023244	0.0027386544078730857	-0.00486711877174527	0.5073757460501084	0.0017338824712988473	-0.008590681893053983	0.4376935030343803	0.042412417335829775
213	3.610169491525424	0.31537396890704095	0.7406118038249194	0.5051384039445777	0.2721806201180006	0.8226062852195422	0.9236807419988071	0.29457572077998934	1.0262166101408088	1.3647438093766866	0.2478588969174618	0.8105017041191169	1.3971526476991882	0.31347348596692043	0.8404074404691729	1.4100077744884707	0.2755371831506099	1.1369090015632077	1.4261430871531326	0.10452844544706849	0.7257512029291288	0.5022426052457933	0.10795049088986833	0.8768705585260937	0.9331352826480183	0.10337742041856998	1.0144790101235155	1.361555913812552	0.10952285108356263	0.797559692713405	1.3765997685908695	0.0600412431998538	0.8624257967329603	1.3879683340560618	0.10964835656866782	1.0871065221197473	1.423344720635417	0.1961140299409802	0.6294436062125096	-0.06008284194932303	0.2028432666791557	0.46832013212188006	-0.2780523967928291	0.18379530181416331	0.4143600054680196	-0.13291250306399058	0.33664523694562504	0.5982841511424892	0.014227666086384861	0.4316881966181508	0.5948852260634963	0.26409229189953853	0.38193155199824846	0.4649271759180343	0.0959914169718549	0.33083367306765793	0.5070169094780065	-0.012128855676422128	0.33246388714246405	0.46720729822227963	-0.006853961885081821	0.34798368438125155	0.40952704703784093	0.05274945728945325	0.05374008670866252	0.6410242384666424	-0.007952914000109348	-0.02807992484074306	0.6778013985084974	0.2688178637648555	-0.014888286308928496	0.5190881904128014	0.10411932597914564	-0.009249629430329259	0.5744072367538038	0.0011664505734391387	-0.004764067369356216	0.5074288369069521	0.0016959776291337477	-0.008126757255486521	0.4391912304499773	0.04503799073783595
214	3.6271186440677967	0.3153076262978922	0.7404486174500726	0.5050262379752594	0.27215864617033886	0.822546627523632	0.9235704814847145	0.2945272955637766	1.0262492528829905	1.3647521558003428	0.24691303647255164	0.8079849105541731	1.3967139983953112	0.31242550696801774	0.8373256899587294	1.409590601191792	0.2753202242912105	1.1365664833710418	1.4260880191529786	0.0997149910271731	0.7380778695579903	0.49845593322375975	0.10775688595918467	0.8764752674638749	0.9330632402666794	0.10337475879835122	1.0145389628082506	1.3615016185397246	0.10950394638688664	0.7975600735361766	1.3766620424978477	0.059903746391576376	0.8618256425894943	1.3878580106456457	0.10948797666432247	1.0863717447359365	1.4230195427479513	0.19639340267075484	0.6287415981026652	-0.06033888849124054	0.20600516866180407	0.45630443926755876	-0.2752025142019321	0.18805020899983282	0.4161382353836236	-0.13345233511008606	0.339362526447079	0.583891557870954	0.015736686902197306	0.43165838351766544	0.5949368393687252	0.2640917428942846	0.3781015841247038	0.4644451684897096	0.09604711871157862	0.3308259635823114	0.5074385001587983	-0.012406055059723003	0.33686905450369586	0.4819379786422091	-0.012301326476745296	0.35588189830358713	0.41312416435874005	0.04610005191946963	0.057757219136180635	0.6280125990540352	-0.002572251900414776	-0.027709788413972824	0.6773293803951759	0.26556107009992275	-0.01500893745400486	0.518940717414983	0.10021093446040963	0.0034787550451559684	0.5611303162101071	0.0024100676134759225	-0.004247111888810783	0.5191324187071952	-0.0001394575354346536	-0.008455640443528615	0.4396216784964497	0.04145863948044008
